<svg xmlns="http://www.w3.org/2000/svg" version="1.1" xmlns:xlink="http://www.w3.org/1999/xlink" xmlns:svgjs="http://svgjs.dev/svgjs" viewBox="0 0 1422 800"><g><circle r="35" cx="0" cy="0" fill="hsl(263, 85%, 22%)"></circle><circle r="35" cx="0" cy="70" fill="hsl(252, 85%, 22%)"></circle><circle r="35" cx="0" cy="140" fill="hsl(242, 85%, 22%)"></circle><circle r="35" cx="0" cy="210" fill="hsl(232, 85%, 22%)"></circle><circle r="35" cx="0" cy="280" fill="hsl(224, 85%, 22%)"></circle><circle r="35" cx="0" cy="350" fill="hsl(216, 85%, 22%)"></circle><circle r="35" cx="0" cy="420" fill="hsl(210, 85%, 22%)"></circle><circle r="35" cx="0" cy="490" fill="hsl(205, 85%, 22%)"></circle><circle r="35" cx="0" cy="560" fill="hsl(201, 85%, 22%)"></circle><circle r="35" cx="0" cy="630" fill="hsl(202, 85%, 22%)"></circle><circle r="35" cx="0" cy="700" fill="hsl(205, 85%, 22%)"></circle><circle r="35" cx="0" cy="770" fill="hsl(210, 85%, 22%)"></circle><circle r="35" cx="0" cy="840" fill="hsl(217, 85%, 22%)"></circle><circle r="35" cx="70" cy="0" fill="hsl(273, 85%, 22%)"></circle><circle r="35" cx="70" cy="70" fill="hsl(263, 85%, 22%)"></circle><circle r="35" cx="70" cy="140" fill="hsl(252, 85%, 22%)"></circle><circle r="35" cx="70" cy="210" fill="hsl(243, 85%, 22%)"></circle><circle r="35" cx="70" cy="280" fill="hsl(234, 85%, 22%)"></circle><circle r="35" cx="70" cy="350" fill="hsl(226, 85%, 22%)"></circle><circle r="35" cx="70" cy="420" fill="hsl(219, 85%, 22%)"></circle><circle r="35" cx="70" cy="490" fill="hsl(214, 85%, 22%)"></circle><circle r="35" cx="70" cy="560" fill="hsl(208, 85%, 22%)"></circle><circle r="35" cx="70" cy="630" fill="hsl(208, 85%, 22%)"></circle><circle r="35" cx="70" cy="700" fill="hsl(210, 85%, 22%)"></circle><circle r="35" cx="70" cy="770" fill="hsl(213, 85%, 22%)"></circle><circle r="35" cx="70" cy="840" fill="hsl(219, 85%, 22%)"></circle><circle r="35" cx="140" cy="0" fill="hsl(283, 85%, 22%)"></circle><circle r="35" cx="140" cy="70" fill="hsl(273, 85%, 22%)"></circle><circle r="35" cx="140" cy="140" fill="hsl(263, 85%, 22%)"></circle><circle r="35" cx="140" cy="210" fill="hsl(253, 85%, 22%)"></circle><circle r="35" cx="140" cy="280" fill="hsl(244, 85%, 22%)"></circle><circle r="35" cx="140" cy="350" fill="hsl(235, 85%, 22%)"></circle><circle r="35" cx="140" cy="420" fill="hsl(228, 85%, 22%)"></circle><circle r="35" cx="140" cy="490" fill="hsl(222, 85%, 22%)"></circle><circle r="35" cx="140" cy="560" fill="hsl(215, 85%, 22%)"></circle><circle r="35" cx="140" cy="630" fill="hsl(214, 85%, 22%)"></circle><circle r="35" cx="140" cy="700" fill="hsl(214, 85%, 22%)"></circle><circle r="35" cx="140" cy="770" fill="hsl(217, 85%, 22%)"></circle><circle r="35" cx="140" cy="840" fill="hsl(221, 85%, 22%)"></circle><circle r="35" cx="210" cy="0" fill="hsl(293, 85%, 22%)"></circle><circle r="35" cx="210" cy="70" fill="hsl(282, 85%, 22%)"></circle><circle r="35" cx="210" cy="140" fill="hsl(272, 85%, 22%)"></circle><circle r="35" cx="210" cy="210" fill="hsl(263, 85%, 22%)"></circle><circle r="35" cx="210" cy="280" fill="hsl(253, 85%, 22%)"></circle><circle r="35" cx="210" cy="350" fill="hsl(245, 85%, 22%)"></circle><circle r="35" cx="210" cy="420" fill="hsl(237, 85%, 22%)"></circle><circle r="35" cx="210" cy="490" fill="hsl(231, 85%, 22%)"></circle><circle r="35" cx="210" cy="560" fill="hsl(222, 85%, 22%)"></circle><circle r="35" cx="210" cy="630" fill="hsl(220, 85%, 22%)"></circle><circle r="35" cx="210" cy="700" fill="hsl(219, 85%, 22%)"></circle><circle r="35" cx="210" cy="770" fill="hsl(220, 85%, 22%)"></circle><circle r="35" cx="210" cy="840" fill="hsl(222, 85%, 22%)"></circle><circle r="35" cx="280" cy="0" fill="hsl(301, 85%, 22%)"></circle><circle r="35" cx="280" cy="70" fill="hsl(291, 85%, 22%)"></circle><circle r="35" cx="280" cy="140" fill="hsl(281, 85%, 22%)"></circle><circle r="35" cx="280" cy="210" fill="hsl(272, 85%, 22%)"></circle><circle r="35" cx="280" cy="280" fill="hsl(262, 85%, 22%)"></circle><circle r="35" cx="280" cy="350" fill="hsl(254, 85%, 22%)"></circle><circle r="35" cx="280" cy="420" fill="hsl(246, 85%, 22%)"></circle><circle r="35" cx="280" cy="490" fill="hsl(239, 85%, 22%)"></circle><circle r="35" cx="280" cy="560" fill="hsl(228, 85%, 22%)"></circle><circle r="35" cx="280" cy="630" fill="hsl(225, 85%, 22%)"></circle><circle r="35" cx="280" cy="700" fill="hsl(223, 85%, 22%)"></circle><circle r="35" cx="280" cy="770" fill="hsl(222, 85%, 22%)"></circle><circle r="35" cx="280" cy="840" fill="hsl(223, 85%, 22%)"></circle><circle r="35" cx="350" cy="0" fill="hsl(309, 85%, 22%)"></circle><circle r="35" cx="350" cy="70" fill="hsl(299, 85%, 22%)"></circle><circle r="35" cx="350" cy="140" fill="hsl(290, 85%, 22%)"></circle><circle r="35" cx="350" cy="210" fill="hsl(280, 85%, 22%)"></circle><circle r="35" cx="350" cy="280" fill="hsl(271, 85%, 22%)"></circle><circle r="35" cx="350" cy="350" fill="hsl(262, 85%, 22%)"></circle><circle r="35" cx="350" cy="420" fill="hsl(254, 85%, 22%)"></circle><circle r="35" cx="350" cy="490" fill="hsl(246, 85%, 22%)"></circle><circle r="35" cx="350" cy="560" fill="hsl(234, 85%, 22%)"></circle><circle r="35" cx="350" cy="630" fill="hsl(230, 85%, 22%)"></circle><circle r="35" cx="350" cy="700" fill="hsl(226, 85%, 22%)"></circle><circle r="35" cx="350" cy="770" fill="hsl(224, 85%, 22%)"></circle><circle r="35" cx="350" cy="840" fill="hsl(223, 85%, 22%)"></circle><circle r="35" cx="420" cy="0" fill="hsl(315, 85%, 22%)"></circle><circle r="35" cx="420" cy="70" fill="hsl(306, 85%, 22%)"></circle><circle r="35" cx="420" cy="140" fill="hsl(297, 85%, 22%)"></circle><circle r="35" cx="420" cy="210" fill="hsl(288, 85%, 22%)"></circle><circle r="35" cx="420" cy="280" fill="hsl(278, 85%, 22%)"></circle><circle r="35" cx="420" cy="350" fill="hsl(269, 85%, 22%)"></circle><circle r="35" cx="420" cy="420" fill="hsl(261, 85%, 22%)"></circle><circle r="35" cx="420" cy="490" fill="hsl(253, 85%, 22%)"></circle><circle r="35" cx="420" cy="560" fill="hsl(239, 85%, 22%)"></circle><circle r="35" cx="420" cy="630" fill="hsl(233, 85%, 22%)"></circle><circle r="35" cx="420" cy="700" fill="hsl(228, 85%, 22%)"></circle><circle r="35" cx="420" cy="770" fill="hsl(225, 85%, 22%)"></circle><circle r="35" cx="420" cy="840" fill="hsl(223, 85%, 22%)"></circle><circle r="35" cx="490" cy="0" fill="hsl(320, 85%, 22%)"></circle><circle r="35" cx="490" cy="70" fill="hsl(312, 85%, 22%)"></circle><circle r="35" cx="490" cy="140" fill="hsl(303, 85%, 22%)"></circle><circle r="35" cx="490" cy="210" fill="hsl(294, 85%, 22%)"></circle><circle r="35" cx="490" cy="280" fill="hsl(284, 85%, 22%)"></circle><circle r="35" cx="490" cy="350" fill="hsl(275, 85%, 22%)"></circle><circle r="35" cx="490" cy="420" fill="hsl(266, 85%, 22%)"></circle><circle r="35" cx="490" cy="490" fill="hsl(258, 85%, 22%)"></circle><circle r="35" cx="490" cy="560" fill="hsl(242, 85%, 22%)"></circle><circle r="35" cx="490" cy="630" fill="hsl(235, 85%, 22%)"></circle><circle r="35" cx="490" cy="700" fill="hsl(230, 85%, 22%)"></circle><circle r="35" cx="490" cy="770" fill="hsl(225, 85%, 22%)"></circle><circle r="35" cx="490" cy="840" fill="hsl(221, 85%, 22%)"></circle><circle r="35" cx="560" cy="0" fill="hsl(326, 85%, 22%)"></circle><circle r="35" cx="560" cy="70" fill="hsl(318, 85%, 22%)"></circle><circle r="35" cx="560" cy="140" fill="hsl(310, 85%, 22%)"></circle><circle r="35" cx="560" cy="210" fill="hsl(301, 85%, 22%)"></circle><circle r="35" cx="560" cy="280" fill="hsl(292, 85%, 22%)"></circle><circle r="35" cx="560" cy="350" fill="hsl(283, 85%, 22%)"></circle><circle r="35" cx="560" cy="420" fill="hsl(273, 85%, 22%)"></circle><circle r="35" cx="560" cy="490" fill="hsl(263, 85%, 22%)"></circle><circle r="35" cx="560" cy="560" fill="hsl(245, 85%, 22%)"></circle><circle r="35" cx="560" cy="630" fill="hsl(236, 85%, 22%)"></circle><circle r="35" cx="560" cy="700" fill="hsl(229, 85%, 22%)"></circle><circle r="35" cx="560" cy="770" fill="hsl(222, 85%, 22%)"></circle><circle r="35" cx="560" cy="840" fill="hsl(216, 85%, 22%)"></circle><circle r="35" cx="630" cy="0" fill="hsl(328, 85%, 22%)"></circle><circle r="35" cx="630" cy="70" fill="hsl(320, 85%, 22%)"></circle><circle r="35" cx="630" cy="140" fill="hsl(312, 85%, 22%)"></circle><circle r="35" cx="630" cy="210" fill="hsl(303, 85%, 22%)"></circle><circle r="35" cx="630" cy="280" fill="hsl(294, 85%, 22%)"></circle><circle r="35" cx="630" cy="350" fill="hsl(284, 85%, 22%)"></circle><circle r="35" cx="630" cy="420" fill="hsl(274, 85%, 22%)"></circle><circle r="35" cx="630" cy="490" fill="hsl(264, 85%, 22%)"></circle><circle r="35" cx="630" cy="560" fill="hsl(244, 85%, 22%)"></circle><circle r="35" cx="630" cy="630" fill="hsl(235, 85%, 22%)"></circle><circle r="35" cx="630" cy="700" fill="hsl(226, 85%, 22%)"></circle><circle r="35" cx="630" cy="770" fill="hsl(219, 85%, 22%)"></circle><circle r="35" cx="630" cy="840" fill="hsl(212, 85%, 22%)"></circle><circle r="35" cx="700" cy="0" fill="hsl(328, 85%, 22%)"></circle><circle r="35" cx="700" cy="70" fill="hsl(321, 85%, 22%)"></circle><circle r="35" cx="700" cy="140" fill="hsl(313, 85%, 22%)"></circle><circle r="35" cx="700" cy="210" fill="hsl(304, 85%, 22%)"></circle><circle r="35" cx="700" cy="280" fill="hsl(294, 85%, 22%)"></circle><circle r="35" cx="700" cy="350" fill="hsl(284, 85%, 22%)"></circle><circle r="35" cx="700" cy="420" fill="hsl(274, 85%, 22%)"></circle><circle r="35" cx="700" cy="490" fill="hsl(263, 85%, 22%)"></circle><circle r="35" cx="700" cy="560" fill="hsl(242, 85%, 22%)"></circle><circle r="35" cx="700" cy="630" fill="hsl(233, 85%, 22%)"></circle><circle r="35" cx="700" cy="700" fill="hsl(223, 85%, 22%)"></circle><circle r="35" cx="700" cy="770" fill="hsl(215, 85%, 22%)"></circle><circle r="35" cx="700" cy="840" fill="hsl(208, 85%, 22%)"></circle><circle r="35" cx="770" cy="0" fill="hsl(328, 85%, 22%)"></circle><circle r="35" cx="770" cy="70" fill="hsl(320, 85%, 22%)"></circle><circle r="35" cx="770" cy="140" fill="hsl(312, 85%, 22%)"></circle><circle r="35" cx="770" cy="210" fill="hsl(303, 85%, 22%)"></circle><circle r="35" cx="770" cy="280" fill="hsl(294, 85%, 22%)"></circle><circle r="35" cx="770" cy="350" fill="hsl(283, 85%, 22%)"></circle><circle r="35" cx="770" cy="420" fill="hsl(272, 85%, 22%)"></circle><circle r="35" cx="770" cy="490" fill="hsl(261, 85%, 22%)"></circle><circle r="35" cx="770" cy="560" fill="hsl(240, 85%, 22%)"></circle><circle r="35" cx="770" cy="630" fill="hsl(229, 85%, 22%)"></circle><circle r="35" cx="770" cy="700" fill="hsl(220, 85%, 22%)"></circle><circle r="35" cx="770" cy="770" fill="hsl(211, 85%, 22%)"></circle><circle r="35" cx="770" cy="840" fill="hsl(204, 85%, 22%)"></circle><circle r="35" cx="840" cy="0" fill="hsl(326, 85%, 22%)"></circle><circle r="35" cx="840" cy="70" fill="hsl(319, 85%, 22%)"></circle><circle r="35" cx="840" cy="140" fill="hsl(311, 85%, 22%)"></circle><circle r="35" cx="840" cy="210" fill="hsl(302, 85%, 22%)"></circle><circle r="35" cx="840" cy="280" fill="hsl(292, 85%, 22%)"></circle><circle r="35" cx="840" cy="350" fill="hsl(281, 85%, 22%)"></circle><circle r="35" cx="840" cy="420" fill="hsl(270, 85%, 22%)"></circle><circle r="35" cx="840" cy="490" fill="hsl(259, 85%, 22%)"></circle><circle r="35" cx="840" cy="560" fill="hsl(236, 85%, 22%)"></circle><circle r="35" cx="840" cy="630" fill="hsl(226, 85%, 22%)"></circle><circle r="35" cx="840" cy="700" fill="hsl(216, 85%, 22%)"></circle><circle r="35" cx="840" cy="770" fill="hsl(207, 85%, 22%)"></circle><circle r="35" cx="840" cy="840" fill="hsl(199, 85%, 22%)"></circle><circle r="35" cx="910" cy="0" fill="hsl(325, 85%, 22%)"></circle><circle r="35" cx="910" cy="70" fill="hsl(318, 85%, 22%)"></circle><circle r="35" cx="910" cy="140" fill="hsl(309, 85%, 22%)"></circle><circle r="35" cx="910" cy="210" fill="hsl(300, 85%, 22%)"></circle><circle r="35" cx="910" cy="280" fill="hsl(290, 85%, 22%)"></circle><circle r="35" cx="910" cy="350" fill="hsl(279, 85%, 22%)"></circle><circle r="35" cx="910" cy="420" fill="hsl(267, 85%, 22%)"></circle><circle r="35" cx="910" cy="490" fill="hsl(255, 85%, 22%)"></circle><circle r="35" cx="910" cy="560" fill="hsl(232, 85%, 22%)"></circle><circle r="35" cx="910" cy="630" fill="hsl(221, 85%, 22%)"></circle><circle r="35" cx="910" cy="700" fill="hsl(211, 85%, 22%)"></circle><circle r="35" cx="910" cy="770" fill="hsl(203, 85%, 22%)"></circle><circle r="35" cx="910" cy="840" fill="hsl(195, 85%, 22%)"></circle><circle r="35" cx="980" cy="0" fill="hsl(323, 85%, 22%)"></circle><circle r="35" cx="980" cy="70" fill="hsl(316, 85%, 22%)"></circle><circle r="35" cx="980" cy="140" fill="hsl(307, 85%, 22%)"></circle><circle r="35" cx="980" cy="210" fill="hsl(298, 85%, 22%)"></circle><circle r="35" cx="980" cy="280" fill="hsl(287, 85%, 22%)"></circle><circle r="35" cx="980" cy="350" fill="hsl(276, 85%, 22%)"></circle><circle r="35" cx="980" cy="420" fill="hsl(264, 85%, 22%)"></circle><circle r="35" cx="980" cy="490" fill="hsl(252, 85%, 22%)"></circle><circle r="35" cx="980" cy="560" fill="hsl(228, 85%, 22%)"></circle><circle r="35" cx="980" cy="630" fill="hsl(217, 85%, 22%)"></circle><circle r="35" cx="980" cy="700" fill="hsl(207, 85%, 22%)"></circle><circle r="35" cx="980" cy="770" fill="hsl(199, 85%, 22%)"></circle><circle r="35" cx="980" cy="840" fill="hsl(191, 85%, 22%)"></circle><circle r="35" cx="1050" cy="0" fill="hsl(321, 85%, 22%)"></circle><circle r="35" cx="1050" cy="70" fill="hsl(313, 85%, 22%)"></circle><circle r="35" cx="1050" cy="140" fill="hsl(305, 85%, 22%)"></circle><circle r="35" cx="1050" cy="210" fill="hsl(295, 85%, 22%)"></circle><circle r="35" cx="1050" cy="280" fill="hsl(284, 85%, 22%)"></circle><circle r="35" cx="1050" cy="350" fill="hsl(273, 85%, 22%)"></circle><circle r="35" cx="1050" cy="420" fill="hsl(261, 85%, 22%)"></circle><circle r="35" cx="1050" cy="490" fill="hsl(249, 85%, 22%)"></circle><circle r="35" cx="1050" cy="560" fill="hsl(225, 85%, 22%)"></circle><circle r="35" cx="1050" cy="630" fill="hsl(214, 85%, 22%)"></circle><circle r="35" cx="1050" cy="700" fill="hsl(204, 85%, 22%)"></circle><circle r="35" cx="1050" cy="770" fill="hsl(195, 85%, 22%)"></circle><circle r="35" cx="1050" cy="840" fill="hsl(188, 85%, 22%)"></circle><circle r="35" cx="1120" cy="0" fill="hsl(316, 85%, 22%)"></circle><circle r="35" cx="1120" cy="70" fill="hsl(309, 85%, 22%)"></circle><circle r="35" cx="1120" cy="140" fill="hsl(300, 85%, 22%)"></circle><circle r="35" cx="1120" cy="210" fill="hsl(290, 85%, 22%)"></circle><circle r="35" cx="1120" cy="280" fill="hsl(279, 85%, 22%)"></circle><circle r="35" cx="1120" cy="350" fill="hsl(267, 85%, 22%)"></circle><circle r="35" cx="1120" cy="420" fill="hsl(255, 85%, 22%)"></circle><circle r="35" cx="1120" cy="490" fill="hsl(243, 85%, 22%)"></circle><circle r="35" cx="1120" cy="560" fill="hsl(219, 85%, 22%)"></circle><circle r="35" cx="1120" cy="630" fill="hsl(209, 85%, 22%)"></circle><circle r="35" cx="1120" cy="700" fill="hsl(199, 85%, 22%)"></circle><circle r="35" cx="1120" cy="770" fill="hsl(191, 85%, 22%)"></circle><circle r="35" cx="1120" cy="840" fill="hsl(185, 85%, 22%)"></circle><circle r="35" cx="1190" cy="0" fill="hsl(314, 85%, 22%)"></circle><circle r="35" cx="1190" cy="70" fill="hsl(306, 85%, 22%)"></circle><circle r="35" cx="1190" cy="140" fill="hsl(297, 85%, 22%)"></circle><circle r="35" cx="1190" cy="210" fill="hsl(288, 85%, 22%)"></circle><circle r="35" cx="1190" cy="280" fill="hsl(277, 85%, 22%)"></circle><circle r="35" cx="1190" cy="350" fill="hsl(265, 85%, 22%)"></circle><circle r="35" cx="1190" cy="420" fill="hsl(253, 85%, 22%)"></circle><circle r="35" cx="1190" cy="490" fill="hsl(241, 85%, 22%)"></circle><circle r="35" cx="1190" cy="560" fill="hsl(218, 85%, 22%)"></circle><circle r="35" cx="1190" cy="630" fill="hsl(208, 85%, 22%)"></circle><circle r="35" cx="1190" cy="700" fill="hsl(199, 85%, 22%)"></circle><circle r="35" cx="1190" cy="770" fill="hsl(191, 85%, 22%)"></circle><circle r="35" cx="1190" cy="840" fill="hsl(185, 85%, 22%)"></circle><circle r="35" cx="1260" cy="0" fill="hsl(311, 85%, 22%)"></circle><circle r="35" cx="1260" cy="70" fill="hsl(304, 85%, 22%)"></circle><circle r="35" cx="1260" cy="140" fill="hsl(295, 85%, 22%)"></circle><circle r="35" cx="1260" cy="210" fill="hsl(285, 85%, 22%)"></circle><circle r="35" cx="1260" cy="280" fill="hsl(275, 85%, 22%)"></circle><circle r="35" cx="1260" cy="350" fill="hsl(263, 85%, 22%)"></circle><circle r="35" cx="1260" cy="420" fill="hsl(252, 85%, 22%)"></circle><circle r="35" cx="1260" cy="490" fill="hsl(240, 85%, 22%)"></circle><circle r="35" cx="1260" cy="560" fill="hsl(218, 85%, 22%)"></circle><circle r="35" cx="1260" cy="630" fill="hsl(208, 85%, 22%)"></circle><circle r="35" cx="1260" cy="700" fill="hsl(199, 85%, 22%)"></circle><circle r="35" cx="1260" cy="770" fill="hsl(192, 85%, 22%)"></circle><circle r="35" cx="1260" cy="840" fill="hsl(186, 85%, 22%)"></circle><circle r="35" cx="1330" cy="0" fill="hsl(309, 85%, 22%)"></circle><circle r="35" cx="1330" cy="70" fill="hsl(302, 85%, 22%)"></circle><circle r="35" cx="1330" cy="140" fill="hsl(293, 85%, 22%)"></circle><circle r="35" cx="1330" cy="210" fill="hsl(284, 85%, 22%)"></circle><circle r="35" cx="1330" cy="280" fill="hsl(273, 85%, 22%)"></circle><circle r="35" cx="1330" cy="350" fill="hsl(262, 85%, 22%)"></circle><circle r="35" cx="1330" cy="420" fill="hsl(251, 85%, 22%)"></circle><circle r="35" cx="1330" cy="490" fill="hsl(239, 85%, 22%)"></circle><circle r="35" cx="1330" cy="560" fill="hsl(218, 85%, 22%)"></circle><circle r="35" cx="1330" cy="630" fill="hsl(209, 85%, 22%)"></circle><circle r="35" cx="1330" cy="700" fill="hsl(201, 85%, 22%)"></circle><circle r="35" cx="1330" cy="770" fill="hsl(194, 85%, 22%)"></circle><circle r="35" cx="1330" cy="840" fill="hsl(189, 85%, 22%)"></circle><circle r="35" cx="1400" cy="0" fill="hsl(307, 85%, 22%)"></circle><circle r="35" cx="1400" cy="70" fill="hsl(300, 85%, 22%)"></circle><circle r="35" cx="1400" cy="140" fill="hsl(292, 85%, 22%)"></circle><circle r="35" cx="1400" cy="210" fill="hsl(282, 85%, 22%)"></circle><circle r="35" cx="1400" cy="280" fill="hsl(272, 85%, 22%)"></circle><circle r="35" cx="1400" cy="350" fill="hsl(262, 85%, 22%)"></circle><circle r="35" cx="1400" cy="420" fill="hsl(251, 85%, 22%)"></circle><circle r="35" cx="1400" cy="490" fill="hsl(240, 85%, 22%)"></circle><circle r="35" cx="1400" cy="560" fill="hsl(220, 85%, 22%)"></circle><circle r="35" cx="1400" cy="630" fill="hsl(211, 85%, 22%)"></circle><circle r="35" cx="1400" cy="700" fill="hsl(203, 85%, 22%)"></circle><circle r="35" cx="1400" cy="770" fill="hsl(198, 85%, 22%)"></circle><circle r="35" cx="1400" cy="840" fill="hsl(193, 85%, 22%)"></circle><circle r="35" cx="1470" cy="0" fill="hsl(307, 85%, 22%)"></circle><circle r="35" cx="1470" cy="70" fill="hsl(300, 85%, 22%)"></circle><circle r="35" cx="1470" cy="140" fill="hsl(292, 85%, 22%)"></circle><circle r="35" cx="1470" cy="210" fill="hsl(282, 85%, 22%)"></circle><circle r="35" cx="1470" cy="280" fill="hsl(272, 85%, 22%)"></circle><circle r="35" cx="1470" cy="350" fill="hsl(262, 85%, 22%)"></circle><circle r="35" cx="1470" cy="420" fill="hsl(251, 85%, 22%)"></circle><circle r="35" cx="1470" cy="490" fill="hsl(240, 85%, 22%)"></circle><circle r="35" cx="1470" cy="560" fill="hsl(220, 85%, 22%)"></circle><circle r="35" cx="1470" cy="630" fill="hsl(211, 85%, 22%)"></circle><circle r="35" cx="1470" cy="700" fill="hsl(203, 85%, 22%)"></circle><circle r="35" cx="1470" cy="770" fill="hsl(198, 85%, 22%)"></circle><circle r="35" cx="1470" cy="840" fill="hsl(193, 85%, 22%)"></circle><circle r="35" cx="1540" cy="0" fill="hsl(307, 85%, 22%)"></circle><circle r="35" cx="1540" cy="70" fill="hsl(300, 85%, 22%)"></circle><circle r="35" cx="1540" cy="140" fill="hsl(292, 85%, 22%)"></circle><circle r="35" cx="1540" cy="210" fill="hsl(282, 85%, 22%)"></circle><circle r="35" cx="1540" cy="280" fill="hsl(272, 85%, 22%)"></circle><circle r="35" cx="1540" cy="350" fill="hsl(262, 85%, 22%)"></circle><circle r="35" cx="1540" cy="420" fill="hsl(251, 85%, 22%)"></circle><circle r="35" cx="1540" cy="490" fill="hsl(240, 85%, 22%)"></circle><circle r="35" cx="1540" cy="560" fill="hsl(220, 85%, 22%)"></circle><circle r="35" cx="1540" cy="630" fill="hsl(211, 85%, 22%)"></circle><circle r="35" cx="1540" cy="700" fill="hsl(203, 85%, 22%)"></circle><circle r="35" cx="1540" cy="770" fill="hsl(198, 85%, 22%)"></circle><circle r="35" cx="1540" cy="840" fill="hsl(193, 85%, 22%)"></circle><circle r="35" cx="1610" cy="0" fill="hsl(307, 85%, 22%)"></circle><circle r="35" cx="1610" cy="70" fill="hsl(300, 85%, 22%)"></circle><circle r="35" cx="1610" cy="140" fill="hsl(292, 85%, 22%)"></circle><circle r="35" cx="1610" cy="210" fill="hsl(282, 85%, 22%)"></circle><circle r="35" cx="1610" cy="280" fill="hsl(272, 85%, 22%)"></circle><circle r="35" cx="1610" cy="350" fill="hsl(262, 85%, 22%)"></circle><circle r="35" cx="1610" cy="420" fill="hsl(251, 85%, 22%)"></circle><circle r="35" cx="1610" cy="490" fill="hsl(240, 85%, 22%)"></circle><circle r="35" cx="1610" cy="560" fill="hsl(220, 85%, 22%)"></circle><circle r="35" cx="1610" cy="630" fill="hsl(211, 85%, 22%)"></circle><circle r="35" cx="1610" cy="700" fill="hsl(203, 85%, 22%)"></circle><circle r="35" cx="1610" cy="770" fill="hsl(198, 85%, 22%)"></circle><circle r="35" cx="1610" cy="840" fill="hsl(193, 85%, 22%)"></circle><circle r="35" cx="1680" cy="0" fill="hsl(307, 85%, 22%)"></circle><circle r="35" cx="1680" cy="70" fill="hsl(300, 85%, 22%)"></circle><circle r="35" cx="1680" cy="140" fill="hsl(292, 85%, 22%)"></circle><circle r="35" cx="1680" cy="210" fill="hsl(282, 85%, 22%)"></circle><circle r="35" cx="1680" cy="280" fill="hsl(272, 85%, 22%)"></circle><circle r="35" cx="1680" cy="350" fill="hsl(262, 85%, 22%)"></circle><circle r="35" cx="1680" cy="420" fill="hsl(251, 85%, 22%)"></circle><circle r="35" cx="1680" cy="490" fill="hsl(240, 85%, 22%)"></circle><circle r="35" cx="1680" cy="560" fill="hsl(220, 85%, 22%)"></circle><circle r="35" cx="1680" cy="630" fill="hsl(211, 85%, 22%)"></circle><circle r="35" cx="1680" cy="700" fill="hsl(203, 85%, 22%)"></circle><circle r="35" cx="1680" cy="770" fill="hsl(198, 85%, 22%)"></circle><circle r="35" cx="1680" cy="840" fill="hsl(193, 85%, 22%)"></circle><circle r="35" cx="1750" cy="0" fill="hsl(307, 85%, 22%)"></circle><circle r="35" cx="1750" cy="70" fill="hsl(300, 85%, 22%)"></circle><circle r="35" cx="1750" cy="140" fill="hsl(292, 85%, 22%)"></circle><circle r="35" cx="1750" cy="210" fill="hsl(282, 85%, 22%)"></circle><circle r="35" cx="1750" cy="280" fill="hsl(272, 85%, 22%)"></circle><circle r="35" cx="1750" cy="350" fill="hsl(262, 85%, 22%)"></circle><circle r="35" cx="1750" cy="420" fill="hsl(251, 85%, 22%)"></circle><circle r="35" cx="1750" cy="490" fill="hsl(240, 85%, 22%)"></circle><circle r="35" cx="1750" cy="560" fill="hsl(220, 85%, 22%)"></circle><circle r="35" cx="1750" cy="630" fill="hsl(211, 85%, 22%)"></circle><circle r="35" cx="1750" cy="700" fill="hsl(203, 85%, 22%)"></circle><circle r="35" cx="1750" cy="770" fill="hsl(198, 85%, 22%)"></circle><circle r="35" cx="1750" cy="840" fill="hsl(193, 85%, 22%)"></circle></g><g transform="matrix(1,0,0,1,-35,0)"><circle r="35" cx="0" cy="35" fill="hsl(263, 85%, 22%)"></circle><circle r="35" cx="0" cy="105" fill="hsl(252, 85%, 22%)"></circle><circle r="35" cx="0" cy="175" fill="hsl(242, 85%, 22%)"></circle><circle r="35" cx="0" cy="245" fill="hsl(232, 85%, 22%)"></circle><circle r="35" cx="0" cy="315" fill="hsl(216, 85%, 22%)"></circle><circle r="35" cx="0" cy="385" fill="hsl(210, 85%, 22%)"></circle><circle r="35" cx="0" cy="455" fill="hsl(205, 85%, 22%)"></circle><circle r="35" cx="0" cy="525" fill="hsl(202, 85%, 22%)"></circle><circle r="35" cx="0" cy="595" fill="hsl(201, 85%, 22%)"></circle><circle r="35" cx="0" cy="665" fill="hsl(202, 85%, 22%)"></circle><circle r="35" cx="0" cy="735" fill="hsl(205, 85%, 22%)"></circle><circle r="35" cx="0" cy="805" fill="hsl(217, 85%, 22%)"></circle><circle r="35" cx="0" cy="875" fill="hsl(225, 85%, 22%)"></circle><circle r="35" cx="70" cy="35" fill="hsl(273, 85%, 22%)"></circle><circle r="35" cx="70" cy="105" fill="hsl(263, 85%, 22%)"></circle><circle r="35" cx="70" cy="175" fill="hsl(252, 85%, 22%)"></circle><circle r="35" cx="70" cy="245" fill="hsl(243, 85%, 22%)"></circle><circle r="35" cx="70" cy="315" fill="hsl(226, 85%, 22%)"></circle><circle r="35" cx="70" cy="385" fill="hsl(219, 85%, 22%)"></circle><circle r="35" cx="70" cy="455" fill="hsl(214, 85%, 22%)"></circle><circle r="35" cx="70" cy="525" fill="hsl(210, 85%, 22%)"></circle><circle r="35" cx="70" cy="595" fill="hsl(208, 85%, 22%)"></circle><circle r="35" cx="70" cy="665" fill="hsl(208, 85%, 22%)"></circle><circle r="35" cx="70" cy="735" fill="hsl(210, 85%, 22%)"></circle><circle r="35" cx="70" cy="805" fill="hsl(219, 85%, 22%)"></circle><circle r="35" cx="70" cy="875" fill="hsl(225, 85%, 22%)"></circle><circle r="35" cx="140" cy="35" fill="hsl(283, 85%, 22%)"></circle><circle r="35" cx="140" cy="105" fill="hsl(273, 85%, 22%)"></circle><circle r="35" cx="140" cy="175" fill="hsl(263, 85%, 22%)"></circle><circle r="35" cx="140" cy="245" fill="hsl(253, 85%, 22%)"></circle><circle r="35" cx="140" cy="315" fill="hsl(235, 85%, 22%)"></circle><circle r="35" cx="140" cy="385" fill="hsl(228, 85%, 22%)"></circle><circle r="35" cx="140" cy="455" fill="hsl(222, 85%, 22%)"></circle><circle r="35" cx="140" cy="525" fill="hsl(218, 85%, 22%)"></circle><circle r="35" cx="140" cy="595" fill="hsl(215, 85%, 22%)"></circle><circle r="35" cx="140" cy="665" fill="hsl(214, 85%, 22%)"></circle><circle r="35" cx="140" cy="735" fill="hsl(214, 85%, 22%)"></circle><circle r="35" cx="140" cy="805" fill="hsl(221, 85%, 22%)"></circle><circle r="35" cx="140" cy="875" fill="hsl(226, 85%, 22%)"></circle><circle r="35" cx="210" cy="35" fill="hsl(293, 85%, 22%)"></circle><circle r="35" cx="210" cy="105" fill="hsl(282, 85%, 22%)"></circle><circle r="35" cx="210" cy="175" fill="hsl(272, 85%, 22%)"></circle><circle r="35" cx="210" cy="245" fill="hsl(263, 85%, 22%)"></circle><circle r="35" cx="210" cy="315" fill="hsl(245, 85%, 22%)"></circle><circle r="35" cx="210" cy="385" fill="hsl(237, 85%, 22%)"></circle><circle r="35" cx="210" cy="455" fill="hsl(231, 85%, 22%)"></circle><circle r="35" cx="210" cy="525" fill="hsl(226, 85%, 22%)"></circle><circle r="35" cx="210" cy="595" fill="hsl(222, 85%, 22%)"></circle><circle r="35" cx="210" cy="665" fill="hsl(220, 85%, 22%)"></circle><circle r="35" cx="210" cy="735" fill="hsl(219, 85%, 22%)"></circle><circle r="35" cx="210" cy="805" fill="hsl(222, 85%, 22%)"></circle><circle r="35" cx="210" cy="875" fill="hsl(226, 85%, 22%)"></circle><circle r="35" cx="280" cy="35" fill="hsl(301, 85%, 22%)"></circle><circle r="35" cx="280" cy="105" fill="hsl(291, 85%, 22%)"></circle><circle r="35" cx="280" cy="175" fill="hsl(281, 85%, 22%)"></circle><circle r="35" cx="280" cy="245" fill="hsl(272, 85%, 22%)"></circle><circle r="35" cx="280" cy="315" fill="hsl(254, 85%, 22%)"></circle><circle r="35" cx="280" cy="385" fill="hsl(246, 85%, 22%)"></circle><circle r="35" cx="280" cy="455" fill="hsl(239, 85%, 22%)"></circle><circle r="35" cx="280" cy="525" fill="hsl(233, 85%, 22%)"></circle><circle r="35" cx="280" cy="595" fill="hsl(228, 85%, 22%)"></circle><circle r="35" cx="280" cy="665" fill="hsl(225, 85%, 22%)"></circle><circle r="35" cx="280" cy="735" fill="hsl(223, 85%, 22%)"></circle><circle r="35" cx="280" cy="805" fill="hsl(223, 85%, 22%)"></circle><circle r="35" cx="280" cy="875" fill="hsl(225, 85%, 22%)"></circle><circle r="35" cx="350" cy="35" fill="hsl(309, 85%, 22%)"></circle><circle r="35" cx="350" cy="105" fill="hsl(299, 85%, 22%)"></circle><circle r="35" cx="350" cy="175" fill="hsl(290, 85%, 22%)"></circle><circle r="35" cx="350" cy="245" fill="hsl(280, 85%, 22%)"></circle><circle r="35" cx="350" cy="315" fill="hsl(262, 85%, 22%)"></circle><circle r="35" cx="350" cy="385" fill="hsl(254, 85%, 22%)"></circle><circle r="35" cx="350" cy="455" fill="hsl(246, 85%, 22%)"></circle><circle r="35" cx="350" cy="525" fill="hsl(240, 85%, 22%)"></circle><circle r="35" cx="350" cy="595" fill="hsl(234, 85%, 22%)"></circle><circle r="35" cx="350" cy="665" fill="hsl(230, 85%, 22%)"></circle><circle r="35" cx="350" cy="735" fill="hsl(226, 85%, 22%)"></circle><circle r="35" cx="350" cy="805" fill="hsl(223, 85%, 22%)"></circle><circle r="35" cx="350" cy="875" fill="hsl(224, 85%, 22%)"></circle><circle r="35" cx="420" cy="35" fill="hsl(315, 85%, 22%)"></circle><circle r="35" cx="420" cy="105" fill="hsl(306, 85%, 22%)"></circle><circle r="35" cx="420" cy="175" fill="hsl(297, 85%, 22%)"></circle><circle r="35" cx="420" cy="245" fill="hsl(288, 85%, 22%)"></circle><circle r="35" cx="420" cy="315" fill="hsl(269, 85%, 22%)"></circle><circle r="35" cx="420" cy="385" fill="hsl(261, 85%, 22%)"></circle><circle r="35" cx="420" cy="455" fill="hsl(253, 85%, 22%)"></circle><circle r="35" cx="420" cy="525" fill="hsl(245, 85%, 22%)"></circle><circle r="35" cx="420" cy="595" fill="hsl(239, 85%, 22%)"></circle><circle r="35" cx="420" cy="665" fill="hsl(233, 85%, 22%)"></circle><circle r="35" cx="420" cy="735" fill="hsl(228, 85%, 22%)"></circle><circle r="35" cx="420" cy="805" fill="hsl(223, 85%, 22%)"></circle><circle r="35" cx="420" cy="875" fill="hsl(222, 85%, 22%)"></circle><circle r="35" cx="490" cy="35" fill="hsl(320, 85%, 22%)"></circle><circle r="35" cx="490" cy="105" fill="hsl(312, 85%, 22%)"></circle><circle r="35" cx="490" cy="175" fill="hsl(303, 85%, 22%)"></circle><circle r="35" cx="490" cy="245" fill="hsl(294, 85%, 22%)"></circle><circle r="35" cx="490" cy="315" fill="hsl(275, 85%, 22%)"></circle><circle r="35" cx="490" cy="385" fill="hsl(266, 85%, 22%)"></circle><circle r="35" cx="490" cy="455" fill="hsl(258, 85%, 22%)"></circle><circle r="35" cx="490" cy="525" fill="hsl(250, 85%, 22%)"></circle><circle r="35" cx="490" cy="595" fill="hsl(242, 85%, 22%)"></circle><circle r="35" cx="490" cy="665" fill="hsl(235, 85%, 22%)"></circle><circle r="35" cx="490" cy="735" fill="hsl(230, 85%, 22%)"></circle><circle r="35" cx="490" cy="805" fill="hsl(221, 85%, 22%)"></circle><circle r="35" cx="490" cy="875" fill="hsl(219, 85%, 22%)"></circle><circle r="35" cx="560" cy="35" fill="hsl(326, 85%, 22%)"></circle><circle r="35" cx="560" cy="105" fill="hsl(318, 85%, 22%)"></circle><circle r="35" cx="560" cy="175" fill="hsl(310, 85%, 22%)"></circle><circle r="35" cx="560" cy="245" fill="hsl(301, 85%, 22%)"></circle><circle r="35" cx="560" cy="315" fill="hsl(283, 85%, 22%)"></circle><circle r="35" cx="560" cy="385" fill="hsl(273, 85%, 22%)"></circle><circle r="35" cx="560" cy="455" fill="hsl(263, 85%, 22%)"></circle><circle r="35" cx="560" cy="525" fill="hsl(254, 85%, 22%)"></circle><circle r="35" cx="560" cy="595" fill="hsl(245, 85%, 22%)"></circle><circle r="35" cx="560" cy="665" fill="hsl(236, 85%, 22%)"></circle><circle r="35" cx="560" cy="735" fill="hsl(229, 85%, 22%)"></circle><circle r="35" cx="560" cy="805" fill="hsl(216, 85%, 22%)"></circle><circle r="35" cx="560" cy="875" fill="hsl(212, 85%, 22%)"></circle><circle r="35" cx="630" cy="35" fill="hsl(328, 85%, 22%)"></circle><circle r="35" cx="630" cy="105" fill="hsl(320, 85%, 22%)"></circle><circle r="35" cx="630" cy="175" fill="hsl(312, 85%, 22%)"></circle><circle r="35" cx="630" cy="245" fill="hsl(303, 85%, 22%)"></circle><circle r="35" cx="630" cy="315" fill="hsl(284, 85%, 22%)"></circle><circle r="35" cx="630" cy="385" fill="hsl(274, 85%, 22%)"></circle><circle r="35" cx="630" cy="455" fill="hsl(264, 85%, 22%)"></circle><circle r="35" cx="630" cy="525" fill="hsl(254, 85%, 22%)"></circle><circle r="35" cx="630" cy="595" fill="hsl(244, 85%, 22%)"></circle><circle r="35" cx="630" cy="665" fill="hsl(235, 85%, 22%)"></circle><circle r="35" cx="630" cy="735" fill="hsl(226, 85%, 22%)"></circle><circle r="35" cx="630" cy="805" fill="hsl(212, 85%, 22%)"></circle><circle r="35" cx="630" cy="875" fill="hsl(207, 85%, 22%)"></circle><circle r="35" cx="700" cy="35" fill="hsl(328, 85%, 22%)"></circle><circle r="35" cx="700" cy="105" fill="hsl(321, 85%, 22%)"></circle><circle r="35" cx="700" cy="175" fill="hsl(313, 85%, 22%)"></circle><circle r="35" cx="700" cy="245" fill="hsl(304, 85%, 22%)"></circle><circle r="35" cx="700" cy="315" fill="hsl(284, 85%, 22%)"></circle><circle r="35" cx="700" cy="385" fill="hsl(274, 85%, 22%)"></circle><circle r="35" cx="700" cy="455" fill="hsl(263, 85%, 22%)"></circle><circle r="35" cx="700" cy="525" fill="hsl(253, 85%, 22%)"></circle><circle r="35" cx="700" cy="595" fill="hsl(242, 85%, 22%)"></circle><circle r="35" cx="700" cy="665" fill="hsl(233, 85%, 22%)"></circle><circle r="35" cx="700" cy="735" fill="hsl(223, 85%, 22%)"></circle><circle r="35" cx="700" cy="805" fill="hsl(208, 85%, 22%)"></circle><circle r="35" cx="700" cy="875" fill="hsl(202, 85%, 22%)"></circle><circle r="35" cx="770" cy="35" fill="hsl(328, 85%, 22%)"></circle><circle r="35" cx="770" cy="105" fill="hsl(320, 85%, 22%)"></circle><circle r="35" cx="770" cy="175" fill="hsl(312, 85%, 22%)"></circle><circle r="35" cx="770" cy="245" fill="hsl(303, 85%, 22%)"></circle><circle r="35" cx="770" cy="315" fill="hsl(283, 85%, 22%)"></circle><circle r="35" cx="770" cy="385" fill="hsl(272, 85%, 22%)"></circle><circle r="35" cx="770" cy="455" fill="hsl(261, 85%, 22%)"></circle><circle r="35" cx="770" cy="525" fill="hsl(250, 85%, 22%)"></circle><circle r="35" cx="770" cy="595" fill="hsl(240, 85%, 22%)"></circle><circle r="35" cx="770" cy="665" fill="hsl(229, 85%, 22%)"></circle><circle r="35" cx="770" cy="735" fill="hsl(220, 85%, 22%)"></circle><circle r="35" cx="770" cy="805" fill="hsl(204, 85%, 22%)"></circle><circle r="35" cx="770" cy="875" fill="hsl(197, 85%, 22%)"></circle><circle r="35" cx="840" cy="35" fill="hsl(326, 85%, 22%)"></circle><circle r="35" cx="840" cy="105" fill="hsl(319, 85%, 22%)"></circle><circle r="35" cx="840" cy="175" fill="hsl(311, 85%, 22%)"></circle><circle r="35" cx="840" cy="245" fill="hsl(302, 85%, 22%)"></circle><circle r="35" cx="840" cy="315" fill="hsl(281, 85%, 22%)"></circle><circle r="35" cx="840" cy="385" fill="hsl(270, 85%, 22%)"></circle><circle r="35" cx="840" cy="455" fill="hsl(259, 85%, 22%)"></circle><circle r="35" cx="840" cy="525" fill="hsl(247, 85%, 22%)"></circle><circle r="35" cx="840" cy="595" fill="hsl(236, 85%, 22%)"></circle><circle r="35" cx="840" cy="665" fill="hsl(226, 85%, 22%)"></circle><circle r="35" cx="840" cy="735" fill="hsl(216, 85%, 22%)"></circle><circle r="35" cx="840" cy="805" fill="hsl(199, 85%, 22%)"></circle><circle r="35" cx="840" cy="875" fill="hsl(193, 85%, 22%)"></circle><circle r="35" cx="910" cy="35" fill="hsl(325, 85%, 22%)"></circle><circle r="35" cx="910" cy="105" fill="hsl(318, 85%, 22%)"></circle><circle r="35" cx="910" cy="175" fill="hsl(309, 85%, 22%)"></circle><circle r="35" cx="910" cy="245" fill="hsl(300, 85%, 22%)"></circle><circle r="35" cx="910" cy="315" fill="hsl(279, 85%, 22%)"></circle><circle r="35" cx="910" cy="385" fill="hsl(267, 85%, 22%)"></circle><circle r="35" cx="910" cy="455" fill="hsl(255, 85%, 22%)"></circle><circle r="35" cx="910" cy="525" fill="hsl(244, 85%, 22%)"></circle><circle r="35" cx="910" cy="595" fill="hsl(232, 85%, 22%)"></circle><circle r="35" cx="910" cy="665" fill="hsl(221, 85%, 22%)"></circle><circle r="35" cx="910" cy="735" fill="hsl(211, 85%, 22%)"></circle><circle r="35" cx="910" cy="805" fill="hsl(195, 85%, 22%)"></circle><circle r="35" cx="910" cy="875" fill="hsl(188, 85%, 22%)"></circle><circle r="35" cx="980" cy="35" fill="hsl(323, 85%, 22%)"></circle><circle r="35" cx="980" cy="105" fill="hsl(316, 85%, 22%)"></circle><circle r="35" cx="980" cy="175" fill="hsl(307, 85%, 22%)"></circle><circle r="35" cx="980" cy="245" fill="hsl(298, 85%, 22%)"></circle><circle r="35" cx="980" cy="315" fill="hsl(276, 85%, 22%)"></circle><circle r="35" cx="980" cy="385" fill="hsl(264, 85%, 22%)"></circle><circle r="35" cx="980" cy="455" fill="hsl(252, 85%, 22%)"></circle><circle r="35" cx="980" cy="525" fill="hsl(240, 85%, 22%)"></circle><circle r="35" cx="980" cy="595" fill="hsl(228, 85%, 22%)"></circle><circle r="35" cx="980" cy="665" fill="hsl(217, 85%, 22%)"></circle><circle r="35" cx="980" cy="735" fill="hsl(207, 85%, 22%)"></circle><circle r="35" cx="980" cy="805" fill="hsl(191, 85%, 22%)"></circle><circle r="35" cx="980" cy="875" fill="hsl(185, 85%, 22%)"></circle><circle r="35" cx="1050" cy="35" fill="hsl(321, 85%, 22%)"></circle><circle r="35" cx="1050" cy="105" fill="hsl(313, 85%, 22%)"></circle><circle r="35" cx="1050" cy="175" fill="hsl(305, 85%, 22%)"></circle><circle r="35" cx="1050" cy="245" fill="hsl(295, 85%, 22%)"></circle><circle r="35" cx="1050" cy="315" fill="hsl(273, 85%, 22%)"></circle><circle r="35" cx="1050" cy="385" fill="hsl(261, 85%, 22%)"></circle><circle r="35" cx="1050" cy="455" fill="hsl(249, 85%, 22%)"></circle><circle r="35" cx="1050" cy="525" fill="hsl(237, 85%, 22%)"></circle><circle r="35" cx="1050" cy="595" fill="hsl(225, 85%, 22%)"></circle><circle r="35" cx="1050" cy="665" fill="hsl(214, 85%, 22%)"></circle><circle r="35" cx="1050" cy="735" fill="hsl(204, 85%, 22%)"></circle><circle r="35" cx="1050" cy="805" fill="hsl(188, 85%, 22%)"></circle><circle r="35" cx="1050" cy="875" fill="hsl(182, 85%, 22%)"></circle><circle r="35" cx="1120" cy="35" fill="hsl(316, 85%, 22%)"></circle><circle r="35" cx="1120" cy="105" fill="hsl(309, 85%, 22%)"></circle><circle r="35" cx="1120" cy="175" fill="hsl(300, 85%, 22%)"></circle><circle r="35" cx="1120" cy="245" fill="hsl(290, 85%, 22%)"></circle><circle r="35" cx="1120" cy="315" fill="hsl(267, 85%, 22%)"></circle><circle r="35" cx="1120" cy="385" fill="hsl(255, 85%, 22%)"></circle><circle r="35" cx="1120" cy="455" fill="hsl(243, 85%, 22%)"></circle><circle r="35" cx="1120" cy="525" fill="hsl(231, 85%, 22%)"></circle><circle r="35" cx="1120" cy="595" fill="hsl(219, 85%, 22%)"></circle><circle r="35" cx="1120" cy="665" fill="hsl(209, 85%, 22%)"></circle><circle r="35" cx="1120" cy="735" fill="hsl(199, 85%, 22%)"></circle><circle r="35" cx="1120" cy="805" fill="hsl(185, 85%, 22%)"></circle><circle r="35" cx="1120" cy="875" fill="hsl(180, 85%, 22%)"></circle><circle r="35" cx="1190" cy="35" fill="hsl(314, 85%, 22%)"></circle><circle r="35" cx="1190" cy="105" fill="hsl(306, 85%, 22%)"></circle><circle r="35" cx="1190" cy="175" fill="hsl(297, 85%, 22%)"></circle><circle r="35" cx="1190" cy="245" fill="hsl(288, 85%, 22%)"></circle><circle r="35" cx="1190" cy="315" fill="hsl(265, 85%, 22%)"></circle><circle r="35" cx="1190" cy="385" fill="hsl(253, 85%, 22%)"></circle><circle r="35" cx="1190" cy="455" fill="hsl(241, 85%, 22%)"></circle><circle r="35" cx="1190" cy="525" fill="hsl(229, 85%, 22%)"></circle><circle r="35" cx="1190" cy="595" fill="hsl(218, 85%, 22%)"></circle><circle r="35" cx="1190" cy="665" fill="hsl(208, 85%, 22%)"></circle><circle r="35" cx="1190" cy="735" fill="hsl(199, 85%, 22%)"></circle><circle r="35" cx="1190" cy="805" fill="hsl(185, 85%, 22%)"></circle><circle r="35" cx="1190" cy="875" fill="hsl(181, 85%, 22%)"></circle><circle r="35" cx="1260" cy="35" fill="hsl(311, 85%, 22%)"></circle><circle r="35" cx="1260" cy="105" fill="hsl(304, 85%, 22%)"></circle><circle r="35" cx="1260" cy="175" fill="hsl(295, 85%, 22%)"></circle><circle r="35" cx="1260" cy="245" fill="hsl(285, 85%, 22%)"></circle><circle r="35" cx="1260" cy="315" fill="hsl(263, 85%, 22%)"></circle><circle r="35" cx="1260" cy="385" fill="hsl(252, 85%, 22%)"></circle><circle r="35" cx="1260" cy="455" fill="hsl(240, 85%, 22%)"></circle><circle r="35" cx="1260" cy="525" fill="hsl(228, 85%, 22%)"></circle><circle r="35" cx="1260" cy="595" fill="hsl(218, 85%, 22%)"></circle><circle r="35" cx="1260" cy="665" fill="hsl(208, 85%, 22%)"></circle><circle r="35" cx="1260" cy="735" fill="hsl(199, 85%, 22%)"></circle><circle r="35" cx="1260" cy="805" fill="hsl(186, 85%, 22%)"></circle><circle r="35" cx="1260" cy="875" fill="hsl(183, 85%, 22%)"></circle><circle r="35" cx="1330" cy="35" fill="hsl(309, 85%, 22%)"></circle><circle r="35" cx="1330" cy="105" fill="hsl(302, 85%, 22%)"></circle><circle r="35" cx="1330" cy="175" fill="hsl(293, 85%, 22%)"></circle><circle r="35" cx="1330" cy="245" fill="hsl(284, 85%, 22%)"></circle><circle r="35" cx="1330" cy="315" fill="hsl(262, 85%, 22%)"></circle><circle r="35" cx="1330" cy="385" fill="hsl(251, 85%, 22%)"></circle><circle r="35" cx="1330" cy="455" fill="hsl(239, 85%, 22%)"></circle><circle r="35" cx="1330" cy="525" fill="hsl(228, 85%, 22%)"></circle><circle r="35" cx="1330" cy="595" fill="hsl(218, 85%, 22%)"></circle><circle r="35" cx="1330" cy="665" fill="hsl(209, 85%, 22%)"></circle><circle r="35" cx="1330" cy="735" fill="hsl(201, 85%, 22%)"></circle><circle r="35" cx="1330" cy="805" fill="hsl(189, 85%, 22%)"></circle><circle r="35" cx="1330" cy="875" fill="hsl(186, 85%, 22%)"></circle><circle r="35" cx="1400" cy="35" fill="hsl(307, 85%, 22%)"></circle><circle r="35" cx="1400" cy="105" fill="hsl(300, 85%, 22%)"></circle><circle r="35" cx="1400" cy="175" fill="hsl(292, 85%, 22%)"></circle><circle r="35" cx="1400" cy="245" fill="hsl(282, 85%, 22%)"></circle><circle r="35" cx="1400" cy="315" fill="hsl(262, 85%, 22%)"></circle><circle r="35" cx="1400" cy="385" fill="hsl(251, 85%, 22%)"></circle><circle r="35" cx="1400" cy="455" fill="hsl(240, 85%, 22%)"></circle><circle r="35" cx="1400" cy="525" fill="hsl(229, 85%, 22%)"></circle><circle r="35" cx="1400" cy="595" fill="hsl(220, 85%, 22%)"></circle><circle r="35" cx="1400" cy="665" fill="hsl(211, 85%, 22%)"></circle><circle r="35" cx="1400" cy="735" fill="hsl(203, 85%, 22%)"></circle><circle r="35" cx="1400" cy="805" fill="hsl(193, 85%, 22%)"></circle><circle r="35" cx="1400" cy="875" fill="hsl(191, 85%, 22%)"></circle><circle r="35" cx="1470" cy="35" fill="hsl(307, 85%, 22%)"></circle><circle r="35" cx="1470" cy="105" fill="hsl(300, 85%, 22%)"></circle><circle r="35" cx="1470" cy="175" fill="hsl(292, 85%, 22%)"></circle><circle r="35" cx="1470" cy="245" fill="hsl(282, 85%, 22%)"></circle><circle r="35" cx="1470" cy="315" fill="hsl(262, 85%, 22%)"></circle><circle r="35" cx="1470" cy="385" fill="hsl(251, 85%, 22%)"></circle><circle r="35" cx="1470" cy="455" fill="hsl(240, 85%, 22%)"></circle><circle r="35" cx="1470" cy="525" fill="hsl(229, 85%, 22%)"></circle><circle r="35" cx="1470" cy="595" fill="hsl(220, 85%, 22%)"></circle><circle r="35" cx="1470" cy="665" fill="hsl(211, 85%, 22%)"></circle><circle r="35" cx="1470" cy="735" fill="hsl(203, 85%, 22%)"></circle><circle r="35" cx="1470" cy="805" fill="hsl(193, 85%, 22%)"></circle><circle r="35" cx="1470" cy="875" fill="hsl(191, 85%, 22%)"></circle><circle r="35" cx="1540" cy="35" fill="hsl(307, 85%, 22%)"></circle><circle r="35" cx="1540" cy="105" fill="hsl(300, 85%, 22%)"></circle><circle r="35" cx="1540" cy="175" fill="hsl(292, 85%, 22%)"></circle><circle r="35" cx="1540" cy="245" fill="hsl(282, 85%, 22%)"></circle><circle r="35" cx="1540" cy="315" fill="hsl(262, 85%, 22%)"></circle><circle r="35" cx="1540" cy="385" fill="hsl(251, 85%, 22%)"></circle><circle r="35" cx="1540" cy="455" fill="hsl(240, 85%, 22%)"></circle><circle r="35" cx="1540" cy="525" fill="hsl(229, 85%, 22%)"></circle><circle r="35" cx="1540" cy="595" fill="hsl(220, 85%, 22%)"></circle><circle r="35" cx="1540" cy="665" fill="hsl(211, 85%, 22%)"></circle><circle r="35" cx="1540" cy="735" fill="hsl(203, 85%, 22%)"></circle><circle r="35" cx="1540" cy="805" fill="hsl(193, 85%, 22%)"></circle><circle r="35" cx="1540" cy="875" fill="hsl(191, 85%, 22%)"></circle><circle r="35" cx="1610" cy="35" fill="hsl(307, 85%, 22%)"></circle><circle r="35" cx="1610" cy="105" fill="hsl(300, 85%, 22%)"></circle><circle r="35" cx="1610" cy="175" fill="hsl(292, 85%, 22%)"></circle><circle r="35" cx="1610" cy="245" fill="hsl(282, 85%, 22%)"></circle><circle r="35" cx="1610" cy="315" fill="hsl(262, 85%, 22%)"></circle><circle r="35" cx="1610" cy="385" fill="hsl(251, 85%, 22%)"></circle><circle r="35" cx="1610" cy="455" fill="hsl(240, 85%, 22%)"></circle><circle r="35" cx="1610" cy="525" fill="hsl(229, 85%, 22%)"></circle><circle r="35" cx="1610" cy="595" fill="hsl(220, 85%, 22%)"></circle><circle r="35" cx="1610" cy="665" fill="hsl(211, 85%, 22%)"></circle><circle r="35" cx="1610" cy="735" fill="hsl(203, 85%, 22%)"></circle><circle r="35" cx="1610" cy="805" fill="hsl(193, 85%, 22%)"></circle><circle r="35" cx="1610" cy="875" fill="hsl(191, 85%, 22%)"></circle><circle r="35" cx="1680" cy="35" fill="hsl(307, 85%, 22%)"></circle><circle r="35" cx="1680" cy="105" fill="hsl(300, 85%, 22%)"></circle><circle r="35" cx="1680" cy="175" fill="hsl(292, 85%, 22%)"></circle><circle r="35" cx="1680" cy="245" fill="hsl(282, 85%, 22%)"></circle><circle r="35" cx="1680" cy="315" fill="hsl(262, 85%, 22%)"></circle><circle r="35" cx="1680" cy="385" fill="hsl(251, 85%, 22%)"></circle><circle r="35" cx="1680" cy="455" fill="hsl(240, 85%, 22%)"></circle><circle r="35" cx="1680" cy="525" fill="hsl(229, 85%, 22%)"></circle><circle r="35" cx="1680" cy="595" fill="hsl(220, 85%, 22%)"></circle><circle r="35" cx="1680" cy="665" fill="hsl(211, 85%, 22%)"></circle><circle r="35" cx="1680" cy="735" fill="hsl(203, 85%, 22%)"></circle><circle r="35" cx="1680" cy="805" fill="hsl(193, 85%, 22%)"></circle><circle r="35" cx="1680" cy="875" fill="hsl(191, 85%, 22%)"></circle><circle r="35" cx="1750" cy="35" fill="hsl(307, 85%, 22%)"></circle><circle r="35" cx="1750" cy="105" fill="hsl(300, 85%, 22%)"></circle><circle r="35" cx="1750" cy="175" fill="hsl(292, 85%, 22%)"></circle><circle r="35" cx="1750" cy="245" fill="hsl(282, 85%, 22%)"></circle><circle r="35" cx="1750" cy="315" fill="hsl(262, 85%, 22%)"></circle><circle r="35" cx="1750" cy="385" fill="hsl(251, 85%, 22%)"></circle><circle r="35" cx="1750" cy="455" fill="hsl(240, 85%, 22%)"></circle><circle r="35" cx="1750" cy="525" fill="hsl(229, 85%, 22%)"></circle><circle r="35" cx="1750" cy="595" fill="hsl(220, 85%, 22%)"></circle><circle r="35" cx="1750" cy="665" fill="hsl(211, 85%, 22%)"></circle><circle r="35" cx="1750" cy="735" fill="hsl(203, 85%, 22%)"></circle><circle r="35" cx="1750" cy="805" fill="hsl(193, 85%, 22%)"></circle><circle r="35" cx="1750" cy="875" fill="hsl(191, 85%, 22%)"></circle></g></svg>